<?xml version="1.0" encoding="UTF-8" standalone="no"?>
<svg
   xmlns:dc="http://purl.org/dc/elements/1.1/"
   xmlns:cc="http://creativecommons.org/ns#"
   xmlns:rdf="http://www.w3.org/1999/02/22-rdf-syntax-ns#"
   xmlns:svg="http://www.w3.org/2000/svg"
   xmlns="http://www.w3.org/2000/svg"
   width="38.008923"
   height="12.59675"
   viewBox="0 0 10.056527 3.3328902"
   version="1.1"
   id="svg8">
  <defs
     id="defs2" />
  <metadata
     id="metadata5">
    <rdf:RDF>
      <cc:Work
         rdf:about="">
        <dc:format>image/svg+xml</dc:format>
        <dc:type
           rdf:resource="http://purl.org/dc/dcmitype/StillImage" />
        <dc:title></dc:title>
      </cc:Work>
    </rdf:RDF>
  </metadata>
  <g
     id="layer1"
     transform="translate(-2.2994198,-4.6077595)">
    <g
       id="g858"
       transform="matrix(0.70698737,0,0,0.70698737,1.6097639,1.8882549)" />
    <g
       id="g901">
      <g
         id="g885"
         transform="matrix(0.60810301,0,0,0.60810301,2.1813515,2.5016248)">
        <path
           d="M 2.4923905,4.4889317 0.43306856,6.5482536 c -0.0218609,0.021865 -0.0218609,0.057311 0,0.079165 L 2.4923905,8.6867465"
           stroke="#000000"
           stroke-width="0.447831"
           stroke-linejoin="round"
           id="path1658"
           style="fill:none;stroke-linecap:round" />
        <path
           d="M 3.1217047,3.575192 V 5.5476653"
           stroke="#000000"
           stroke-width="0.223915"
           stroke-linejoin="round"
           id="path1660"
           style="fill:none;stroke-width:0.223483;stroke-linecap:round;stroke-miterlimit:4;stroke-dasharray:none" />
        <path
           d="m 3.1217047,6.6997996 v 0.918277"
           stroke="#000000"
           stroke-width="0.223915"
           stroke-linejoin="round"
           id="path1662"
           style="fill:none;stroke-linecap:round" />
        <path
           d="m 3.7510078,4.522519 2.0197393,2.0197449 c 0.043719,0.043719 0.043719,0.1146111 0,0.1583306 L 3.7510078,8.7203338"
           stroke="#000000"
           stroke-width="0.447831"
           stroke-linejoin="round"
           id="path1664"
           style="fill:none;stroke-linecap:round" />
        <circle
           cx="3.1217046"
           cy="6.1346483"
           r="0.39156532"
           fill="#000000"
           id="circle1666"
           style="stroke-width:0.0111958" />
      </g>
      <path
         d="m 6.4472627,6.3937632 c -0.076657,0 -0.1479745,-0.00873 -0.2139512,-0.026198 -0.065977,-0.018439 -0.1198283,-0.044145 -0.161555,-0.077139 -0.014555,-0.010669 -0.025224,-0.021832 -0.03202,-0.033475 -0.00582,-0.012618 -0.00873,-0.028135 -0.00873,-0.046574 0,-0.024261 0.00728,-0.0456 0.021832,-0.06404 0.015529,-0.01844 0.032994,-0.027654 0.052396,-0.027654 0.01067,0 0.020858,0.00194 0.030565,0.00582 0.010669,0.00291 0.023287,0.00873 0.037842,0.017465 0.041727,0.026198 0.083935,0.0456 0.1266241,0.058218 0.04269,0.011644 0.089757,0.017465 0.1411787,0.017465 0.06404,0 0.1130437,-0.010669 0.1470004,-0.03202 0.033957,-0.02135 0.050941,-0.051915 0.050941,-0.091693 0,-0.030083 -0.01601,-0.054333 -0.04803,-0.072773 C 6.5603097,6.0027252 6.5045097,5.9852602 6.423979,5.9687692 6.333741,5.9503302 6.26145,5.9280162 6.2071169,5.9018182 c -0.05337,-0.026198 -0.092667,-0.0587 -0.1178915,-0.097515 -0.024261,-0.038816 -0.036386,-0.085872 -0.036386,-0.1411787 0,-0.061129 0.017465,-0.1159546 0.052396,-0.1644658 0.035905,-0.049485 0.084898,-0.087808 0.1470005,-0.1149806 0.063066,-0.028135 0.1339014,-0.042208 0.2124957,-0.042208 0.1377863,0 0.2513114,0.034449 0.3405753,0.1033369 0.014555,0.011644 0.024743,0.023769 0.030565,0.036386 0.0068,0.011644 0.010188,0.026198 0.010188,0.043664 0,0.024261 -0.00776,0.0456 -0.023287,0.06404 -0.014555,0.018439 -0.031539,0.027654 -0.050941,0.027654 -0.01067,0 -0.020858,-0.00146 -0.030564,-0.00437 C 6.7325379,5.609271 6.7199179,5.602971 6.7034259,5.59326 6.6636469,5.568036 6.6267689,5.549115 6.5928117,5.536498 6.5598177,5.52388 6.5176097,5.517577 6.4661875,5.517577 c -0.059192,0 -0.1057664,0.011644 -0.1397232,0.034931 -0.033957,0.022313 -0.050941,0.05337 -0.050941,0.093149 0,0.023287 0.0063,0.042689 0.018921,0.058218 0.01358,0.014555 0.035412,0.027654 0.065495,0.039297 0.031046,0.011644 0.074709,0.023769 0.1309905,0.036386 0.1319645,0.029109 0.2265688,0.066469 0.2838127,0.1120697 0.058218,0.0456 0.087327,0.1081847 0.087327,0.1877531 0,0.062103 -0.017465,0.1169174 -0.052396,0.1644658 -0.033957,0.047549 -0.082479,0.084416 -0.145545,0.1106142 -0.062103,0.026198 -0.1343828,0.039297 -0.216862,0.039297 z M 7.9676258,6.2423964 c 0.00777,0.017465 0.011644,0.032994 0.011644,0.046574 0,0.027172 -0.011151,0.050459 -0.033475,0.069862 -0.021339,0.018439 -0.046082,0.027654 -0.074228,0.027654 -0.018428,0 -0.035894,-0.00485 -0.052396,-0.014555 -0.016491,-0.01067 -0.029109,-0.026198 -0.037842,-0.046574 L 7.7041894,6.1536139 H 7.2107918 L 7.1336529,6.325357 c -0.00873,0.020376 -0.021339,0.035905 -0.037842,0.046574 -0.015517,0.00971 -0.032983,0.014555 -0.052396,0.014555 -0.028135,0 -0.053359,-0.00921 -0.075683,-0.027654 C 6.9454189,6.33943 6.9342569,6.316143 6.9342569,6.28897 c 0,-0.013581 0.00388,-0.029109 0.011644,-0.046574 L 7.3388714,5.4171562 c 0.010681,-0.023287 0.026691,-0.040753 0.04803,-0.052396 0.02135,-0.012618 0.044156,-0.018921 0.068406,-0.018921 0.025235,0 0.048523,0.0063 0.069862,0.018921 0.02135,0.012618 0.037842,0.030083 0.049485,0.052396 z M 7.2879307,5.9818708 H 7.6270505 L 7.4582183,5.6034538 Z m 1.0364819,0.4060706 c -0.033968,0 -0.061622,-0.010188 -0.082961,-0.030564 -0.020376,-0.020376 -0.030565,-0.047548 -0.030565,-0.081505 V 5.539414 h -0.235782 c -0.07181,0 -0.1077033,-0.031046 -0.1077033,-0.093149 0,-0.061129 0.035894,-0.091693 0.1077033,-0.091693 h 0.6986161 c 0.071798,0 0.1077033,0.030564 0.1077033,0.091693 0,0.062103 -0.035905,0.093149 -0.1077033,0.093149 H 8.4379378 v 0.7364577 c 0,0.033957 -0.010188,0.061129 -0.030565,0.081505 -0.020376,0.020376 -0.04803,0.030564 -0.082961,0.030564 z M 9.6853593,5.3472946 c 0.033957,0 0.061129,0.010188 0.081505,0.030564 0.020376,0.020376 0.030564,0.047549 0.030564,0.081505 v 0.8165075 c 0,0.033957 -0.010188,0.06161 -0.030564,0.082961 -0.020376,0.020376 -0.047549,0.030564 -0.081505,0.030564 -0.033968,0 -0.061129,-0.010188 -0.081505,-0.030564 -0.019413,-0.020376 -0.029109,-0.04803 -0.029109,-0.082961 V 5.9498509 H 9.1017238 v 0.3260208 c 0,0.033957 -0.010188,0.06161 -0.030565,0.082961 -0.020376,0.020376 -0.047067,0.030564 -0.08005,0.030564 -0.033968,0 -0.061129,-0.010188 -0.081505,-0.030564 -0.020376,-0.020376 -0.030564,-0.04803 -0.030564,-0.082961 V 5.4593642 c 0,-0.033957 0.010188,-0.061129 0.030564,-0.081505 0.020376,-0.020376 0.047537,-0.030564 0.081505,-0.030564 0.033957,0 0.060636,0.010188 0.08005,0.030564 0.020376,0.020376 0.030565,0.047549 0.030565,0.081505 V 5.7693751 H 9.574745 V 5.4593642 c 0,-0.033957 0.0097,-0.061129 0.029109,-0.081505 0.020376,-0.020376 0.047537,-0.030564 0.081505,-0.030565 z m 1.0588177,0.059673 c 0.0087,-0.020376 0.02134,-0.035412 0.03784,-0.045119 0.01649,-0.01067 0.03493,-0.01601 0.05531,-0.01601 0.02911,0 0.05531,0.00971 0.07859,0.029109 0.02329,0.019402 0.03493,0.043182 0.03493,0.071317 0,0.014555 -0.0034,0.029109 -0.01019,0.043664 l -0.392972,0.8296065 c -0.01068,0.022313 -0.02669,0.039779 -0.04803,0.052396 -0.02135,0.011644 -0.04464,0.017465 -0.06986,0.017465 -0.02524,0 -0.04852,-0.00582 -0.06986,-0.017465 -0.02135,-0.012618 -0.03736,-0.030083 -0.04803,-0.052396 L 9.9189366,5.4899287 c -0.0068,-0.01358 -0.010188,-0.027654 -0.010188,-0.042208 0,-0.029109 0.012125,-0.05337 0.036386,-0.072773 0.02425,-0.019402 0.051422,-0.029109 0.081505,-0.029109 0.02038,0 0.0388,0.00534 0.05531,0.01601 0.01746,0.00971 0.03056,0.024743 0.0393,0.045119 l 0.311466,0.6811507 z m 0.430141,0.9824288 c -0.03493,0 -0.06258,-0.010188 -0.08296,-0.030564 -0.02038,-0.020376 -0.03056,-0.04803 -0.03056,-0.082961 V 5.4593642 c 0,-0.033957 0.01019,-0.061129 0.03056,-0.081505 0.02038,-0.020376 0.04803,-0.030564 0.08296,-0.030564 0.03493,0 0.06259,0.010188 0.08296,0.030564 0.02038,0.020376 0.03056,0.047549 0.03056,0.081505 v 0.8165075 c 0,0.034931 -0.01019,0.062584 -0.03056,0.082961 -0.02038,0.020376 -0.04803,0.030564 -0.08296,0.030564 z m 1.148149,-0.1790203 c 0.02239,0.022313 0.03348,0.046574 0.03348,0.072773 0,0.027172 -0.01064,0.050941 -0.03202,0.071317 -0.02038,0.020376 -0.04411,0.030564 -0.07132,0.030564 -0.03101,0 -0.05867,-0.012618 -0.08296,-0.037842 L 11.718457,5.9061867 V 6.275871 c 0,0.034931 -0.01019,0.062584 -0.03056,0.082961 -0.02038,0.020376 -0.04803,0.030564 -0.08296,0.030564 -0.03493,0 -0.06258,-0.010188 -0.08296,-0.030564 -0.02038,-0.020376 -0.03056,-0.04803 -0.03056,-0.082961 V 5.4593642 c 0,-0.033957 0.01019,-0.061129 0.03056,-0.081505 0.02038,-0.020376 0.04803,-0.030564 0.08296,-0.030564 0.03493,0 0.06258,0.010188 0.08296,0.030564 0.02038,0.020376 0.03056,0.047549 0.03056,0.081505 v 0.3478526 l 0.439546,-0.4264469 c 0.02138,-0.02135 0.04568,-0.03202 0.07277,-0.03202 0.02721,0 0.05094,0.010188 0.07132,0.030565 0.02038,0.019402 0.03056,0.042689 0.03056,0.069862 0,0.028135 -0.01164,0.05337 -0.03493,0.075683 l -0.346397,0.3245654 z"
         fill="#000000"
         id="path1668"
         style="stroke-width:0.0111958" />
      <path
         d="m 6.4144031,7.6130945 c -0.070757,0 -0.1365884,-0.00806 -0.1974934,-0.024183 -0.060905,-0.017018 -0.1106142,-0.040753 -0.1491277,-0.071205 -0.013435,-0.00985 -0.023287,-0.020152 -0.029557,-0.0309 -0.00537,-0.011644 -0.00806,-0.025974 -0.00806,-0.042992 0,-0.022392 0.00672,-0.042096 0.020152,-0.059114 0.014331,-0.017018 0.030452,-0.025526 0.048366,-0.025526 0.00985,0 0.019257,0.00179 0.028213,0.00537 0.00985,0.00269 0.021496,0.00806 0.034931,0.016122 0.038513,0.024183 0.077475,0.042096 0.1168839,0.05374 0.039409,0.010748 0.082849,0.016122 0.1303187,0.016122 0.059114,0 0.1043446,-0.00985 0.1356928,-0.029557 0.031348,-0.019705 0.047022,-0.047918 0.047022,-0.08464 0,-0.027766 -0.014778,-0.050157 -0.044335,-0.067175 C 6.5187477,7.2521429 6.4672471,7.236021 6.3929072,7.2207947 6.3096107,7.2037771 6.2428839,7.1831769 6.1927268,7.1589941 6.1434655,7.1348112 6.1071912,7.1048065 6.083904,7.0689801 6.0615124,7.0331536 6.0503166,6.989714 6.0503166,6.9386613 c 0,-0.056427 0.016122,-0.1070315 0.048366,-0.1518146 0.033139,-0.045679 0.07837,-0.081057 0.1356927,-0.1061359 0.058218,-0.025974 0.1236013,-0.038961 0.1961499,-0.038961 0.1271839,0 0.2319764,0.031796 0.3143772,0.095388 0.013435,0.010748 0.022839,0.021944 0.028213,0.033587 0.00627,0.010748 0.0094,0.024183 0.0094,0.040305 0,0.022392 -0.00717,0.042096 -0.021496,0.059114 -0.013435,0.017018 -0.029109,0.025526 -0.047022,0.025526 -0.00985,0 -0.019257,-0.00134 -0.028213,-0.00403 -0.00806,-0.00269 -0.019705,-0.00851 -0.034931,-0.017465 -0.036722,-0.023287 -0.070757,-0.040753 -0.1021055,-0.052396 -0.030452,-0.011644 -0.069414,-0.017465 -0.1168838,-0.017465 -0.054635,0 -0.097627,0.010748 -0.1289753,0.032244 -0.031348,0.0206 -0.047022,0.049261 -0.047022,0.085984 0,0.021496 0.00582,0.039409 0.017465,0.05374 0.012539,0.013435 0.032692,0.025526 0.060457,0.036274 0.028661,0.010748 0.068966,0.021944 0.1209144,0.033587 0.1218099,0.02687 0.2091369,0.061353 0.261981,0.1034489 0.05374,0.042096 0.080609,0.099866 0.080609,0.1733105 0,0.057322 -0.016122,0.1079273 -0.048366,0.1518147 -0.031348,0.043887 -0.076131,0.077922 -0.1343492,0.1021054 -0.057322,0.024183 -0.1240492,0.036274 -0.2001804,0.036274 z m 0.9691506,0 c -0.094044,0 -0.1759975,-0.019705 -0.2458591,-0.059114 C 7.0687287,7.5136761 7.0154368,7.4572494 6.977819,7.3847008 6.9402012,7.3112565 6.9213923,7.225273 6.9213923,7.1267503 c 0,-0.098523 0.018809,-0.1840585 0.056427,-0.2566071 0.037618,-0.073444 0.09091,-0.1298709 0.1598756,-0.16928 0.069862,-0.039409 0.1518147,-0.059114 0.2458591,-0.059114 0.094044,0 0.1755497,0.019704 0.2445156,0.059114 0.069862,0.039409 0.1236013,0.095836 0.1612191,0.16928 0.037618,0.072549 0.056427,0.1580843 0.056427,0.2566071 0,0.098523 -0.018809,0.1845062 -0.056427,0.2579505 -0.037618,0.072549 -0.091357,0.1289753 -0.1612191,0.16928 -0.068966,0.039409 -0.1504711,0.059114 -0.2445159,0.059114 z m 0,-0.1625626 c 0.078818,0 0.1406189,-0.027765 0.185402,-0.083296 0.045679,-0.055531 0.068518,-0.1356927 0.068518,-0.2404851 0,-0.1047925 -0.022392,-0.1845063 -0.067175,-0.2391417 -0.044783,-0.055531 -0.1070316,-0.083297 -0.1867455,-0.083297 -0.079714,0 -0.1419623,0.027766 -0.1867454,0.083297 -0.043887,0.054635 -0.065831,0.1343492 -0.065831,0.2391417 0,0.1047924 0.022391,0.1849541 0.067175,0.2404851 0.044783,0.055531 0.1065837,0.083296 0.1854019,0.083296 z m 0.726975,0.1585321 c -0.031348,0 -0.056875,-0.0094 -0.076579,-0.028213 C 8.0151407,7.561146 8.0057367,7.53562 8.0057367,7.504272 V 6.7519159 c 0,-0.031348 0.00851,-0.055531 0.025526,-0.072549 0.017018,-0.017018 0.0412,-0.025526 0.072549,-0.025526 h 0.4621614 c 0.034035,0 0.059114,0.00672 0.075236,0.020152 0.016122,0.013435 0.024183,0.034483 0.024183,0.063144 0,0.027766 -0.00806,0.048366 -0.024183,0.061801 -0.016122,0.013435 -0.0412,0.020152 -0.075236,0.020152 h -0.353339 v 0.2176458 h 0.3264686 c 0.034035,0 0.059114,0.00672 0.075236,0.020152 0.016122,0.013435 0.024183,0.034483 0.024183,0.063144 0,0.027766 -0.00806,0.048366 -0.024183,0.061801 -0.016122,0.013435 -0.0412,0.020152 -0.075236,0.020152 H 8.2126341 v 0.3022858 c 0,0.032244 -0.0094,0.05777 -0.028213,0.076579 -0.017913,0.018809 -0.042544,0.028213 -0.073892,0.028213 z m 1.0127469,-0.00134 c -0.031348,0 -0.056874,-0.0094 -0.076579,-0.028213 C 9.0278876,7.560702 9.0184836,7.535624 9.0184836,7.504275 V 6.8244645 H 8.8008374 c -0.066279,0 -0.099418,-0.028661 -0.099418,-0.085984 0,-0.056427 0.03314,-0.08464 0.099418,-0.08464 h 0.6448764 c 0.066279,0 0.099418,0.028213 0.099418,0.08464 0,0.057322 -0.033139,0.085984 -0.099418,0.085984 H 9.228068 v 0.6798071 c 0,0.031348 -0.0094,0.056427 -0.028213,0.075236 -0.018809,0.018809 -0.044335,0.028213 -0.076579,0.028213 z m 0.6100463,-0.00672 c -0.031348,0 -0.055531,-0.00851 -0.072549,-0.025526 C 9.6437549,7.55846 9.6352469,7.534278 9.6352469,7.502929 V 6.7519159 c 0,-0.031348 0.00851,-0.055531 0.025526,-0.072549 0.017018,-0.017018 0.0412,-0.025526 0.072549,-0.025526 h 0.4755961 c 0.06628,0 0.09942,0.02687 0.09942,0.08061 0,0.054635 -0.03314,0.081953 -0.09942,0.081953 H 9.8394578 v 0.2216763 h 0.3425902 c 0.06628,0 0.09942,0.027318 0.09942,0.081953 0,0.05374 -0.03314,0.08061 -0.09942,0.08061 H 9.8394578 v 0.2377982 h 0.3694602 c 0.06628,0 0.09942,0.027318 0.09942,0.081953 0,0.05374 -0.03314,0.08061 -0.09942,0.08061 z m 1.1336051,0.012091 c -0.09315,0 -0.174654,-0.019705 -0.244515,-0.059114 -0.06986,-0.039409 -0.123602,-0.095836 -0.161219,-0.16928 -0.03762,-0.073444 -0.05643,-0.1594278 -0.05643,-0.2579505 0,-0.098523 0.01881,-0.1840585 0.05643,-0.2566071 0.03762,-0.073444 0.09136,-0.1298709 0.161219,-0.16928 0.06986,-0.039409 0.151366,-0.059114 0.244515,-0.059114 0.117332,0 0.218542,0.032244 0.30363,0.096731 0.01343,0.010748 0.02284,0.021496 0.02821,0.032244 0.0054,0.010748 0.0081,0.024183 0.0081,0.040305 0,0.023287 -0.0067,0.04344 -0.02015,0.060457 -0.01254,0.016122 -0.02821,0.024183 -0.04702,0.024183 -0.01254,0 -0.02374,-0.00134 -0.03359,-0.00403 -0.009,-0.00358 -0.01926,-0.0094 -0.0309,-0.017465 -0.03583,-0.023287 -0.06897,-0.039857 -0.09942,-0.049709 -0.03045,-0.010748 -0.06314,-0.016122 -0.09807,-0.016122 -0.08598,0 -0.150919,0.02687 -0.194806,0.08061 -0.04299,0.052844 -0.06449,0.1321101 -0.06449,0.2377982 0,0.2131674 0.08643,0.3197511 0.259294,0.3197511 0.03314,0 0.06449,-0.00493 0.09404,-0.014778 0.02956,-0.010748 0.06404,-0.027766 0.103449,-0.051053 0.01343,-0.00806 0.02463,-0.013435 0.03359,-0.016122 0.009,-0.00358 0.01926,-0.00537 0.0309,-0.00537 0.01881,0 0.03448,0.00851 0.04702,0.025526 0.01343,0.016122 0.02015,0.035826 0.02015,0.059114 0,0.016122 -0.0031,0.030005 -0.0094,0.041648 -0.0054,0.010748 -0.01433,0.021048 -0.02687,0.0309 -0.08509,0.064488 -0.186298,0.096731 -0.30363,0.096731 z M 12.08646,6.647124 c 0.03135,0 0.05643,0.0094 0.07524,0.028213 0.01881,0.018809 0.02821,0.043887 0.02821,0.075236 v 0.7536992 c 0,0.031348 -0.0094,0.056875 -0.02821,0.076579 -0.01881,0.018809 -0.04389,0.028213 -0.07524,0.028213 -0.03135,0 -0.05643,-0.0094 -0.07524,-0.028213 -0.01791,-0.018809 -0.02687,-0.044335 -0.02687,-0.076579 V 7.2033293 h -0.43663 v 0.3009423 c 0,0.031348 -0.0094,0.056875 -0.02821,0.076579 -0.01881,0.018809 -0.04344,0.028213 -0.07389,0.028213 -0.03135,0 -0.05643,-0.0094 -0.07524,-0.028213 -0.01881,-0.018809 -0.02821,-0.044335 -0.02821,-0.076579 V 6.7505724 c 0,-0.031348 0.0094,-0.056427 0.02821,-0.075236 0.01881,-0.018809 0.04389,-0.028213 0.07524,-0.028213 0.03135,0 0.05598,0.0094 0.07389,0.028213 0.01881,0.018809 0.02821,0.043887 0.02821,0.075236 v 0.2861639 h 0.436635 V 6.7505724 c 0,-0.031348 0.009,-0.056427 0.02687,-0.075236 0.01881,-0.018809 0.04389,-0.028213 0.07524,-0.028213 z"
         fill="#000000"
         id="path1670"
         style="stroke-width:0.0111958" />
    </g>
  </g>
</svg>
